<?xml version="1.0" standalone="no"?>
<!DOCTYPE svg PUBLIC "-//W3C//DTD SVG 20010904//EN"
 "http://www.w3.org/TR/2001/REC-SVG-20010904/DTD/svg10.dtd">
<svg version="1.0" xmlns="http://www.w3.org/2000/svg"
 width="512.000000pt" height="512.000000pt" viewBox="0 0 512.000000 512.000000"
 preserveAspectRatio="xMidYMid meet">

<g transform="translate(0.000000,512.000000) scale(0.100000,-0.100000)"
fill="#000000" stroke="none">
<path d="M2365 5114 c-658 -68 -1187 -315 -1627 -760 -577 -585 -838 -1406
-703 -2211 43 -253 114 -472 230 -708 130 -265 255 -444 460 -653 222 -229
419 -373 696 -511 628 -313 1340 -355 2004 -120 154 55 402 179 538 269 527
349 911 879 1068 1474 256 969 -60 1977 -821 2620 -368 311 -800 506 -1290
581 -101 15 -468 28 -555 19z m-222 -567 l317 -231 0 -350 0 -351 -491 -356
-490 -357 -334 111 -333 111 -111 352 c-61 194 -111 357 -111 362 0 19 178
248 263 338 189 200 453 394 685 501 118 56 266 112 277 105 6 -3 153 -109
328 -235z m1404 146 c247 -110 521 -306 718 -516 90 -95 265 -320 265 -341 0
-19 -218 -698 -227 -706 -13 -12 -654 -221 -668 -218 -7 2 -229 161 -494 353
l-481 350 0 351 0 351 325 236 325 236 68 -25 c37 -14 113 -46 169 -71z m1103
-1967 l263 -189 -7 -111 c-23 -381 -132 -739 -325 -1065 -39 -67 -77 -121 -84
-121 -7 0 -163 -25 -347 -54 l-335 -54 -234 233 -234 233 178 548 c97 302 181
553 185 557 13 15 655 224 666 218 6 -3 129 -91 274 -195z m-3560 86 l324
-108 188 -580 188 -579 -243 -243 -242 -242 -285 45 c-157 24 -299 47 -317 50
-37 7 -85 68 -183 238 -180 314 -284 664 -306 1033 l-7 111 268 192 c147 105
273 191 279 191 6 0 157 -49 336 -108z m2349 -1606 l224 -224 -42 -269 c-23
-147 -46 -271 -49 -274 -11 -10 -176 -78 -254 -105 -109 -37 -288 -81 -418
-101 -161 -25 -519 -25 -680 0 -209 33 -392 85 -587 167 l-101 43 -10 56 c-6
31 -22 136 -38 234 l-27 179 259 259 259 259 620 0 620 0 224 -224z"/>
</g>
</svg>
